<?xml version="1.0" encoding="UTF-8"?><svg id="Layer_1" xmlns="http://www.w3.org/2000/svg" viewBox="0 0 128 128"><defs><style>.cls-1{fill:#00dc82;}</style></defs><path class="cls-1" d="M128,101.8v22.85c0,1.85-1.5,3.34-3.34,3.34h-3.16c-1.85,0-3.34-1.5-3.34-3.34v-13c0-1.85-1.5-3.34-3.34-3.34h-3.15c-1.85,0-3.34-1.5-3.34-3.34v-3.16c0-1.85,1.5-3.34,3.34-3.34h13c1.85,0,3.34,1.5,3.34,3.34Z"/><rect class="cls-1" x="108.31" y="68.92" width="19.69" height="19.7" rx="3.34" ry="3.34"/><path class="cls-1" d="M128,3.34v52.39c0,1.85-1.5,3.34-3.34,3.34h-22.85c-1.85,0-3.34-1.5-3.34-3.34v-3.16c0-1.85,1.5-3.34,3.34-3.34h13c1.85,0,3.34-1.5,3.34-3.34V13.19c0-1.85-1.5-3.34-3.34-3.34h-32.69c-1.85,0-3.34-1.5-3.34-3.34v-3.16c0-1.85,1.5-3.34,3.34-3.34h42.54c1.85,0,3.34,1.5,3.34,3.34Z"/><path class="cls-1" d="M108.31,23.03v3.16c0,1.85-1.5,3.34-3.34,3.34h-13c-1.85,0-3.34,1.5-3.34,3.34v22.85c0,1.85-1.5,3.34-3.34,3.34h-3.16c-1.85,0-3.34-1.5-3.34-3.34V23.03c0-1.85,1.5-3.34,3.34-3.34h22.85c1.85,0,3.34,1.5,3.34,3.34Z"/><path class="cls-1" d="M98.46,111.65v13c0,1.85-1.5,3.34-3.34,3.34h-13c-1.85,0-3.34-1.5-3.34-3.34v-3.16c0-1.85,1.5-3.34,3.34-3.34h3.16c1.85,0,3.34-1.5,3.34-3.34v-3.15c0-1.85,1.5-3.34,3.34-3.34h3.15c1.85,0,3.34,1.5,3.34,3.34Z"/><rect class="cls-1" x="78.77" y="68.92" width="19.69" height="19.7" rx="3.34" ry="3.34"/><rect class="cls-1" x="78.77" y="98.46" width="9.85" height="9.85" rx="3.34" ry="3.34"/><path class="cls-1" d="M0,3.34v62.23c0,1.85,1.5,3.34,3.34,3.34h62.23c1.85,0,3.34-1.5,3.34-3.34V3.34c0-1.85-1.5-3.34-3.34-3.34H3.34C1.5,0,0,1.5,0,3.34ZM55.74,59.08H13.19c-1.85,0-3.34-1.5-3.34-3.34V13.19c0-1.85,1.5-3.34,3.34-3.34h42.54c1.85,0,3.34,1.5,3.34,3.34v42.54c0,1.85-1.5,3.34-3.34,3.34Z"/><rect class="cls-1" x="19.69" y="98.46" width="29.54" height="9.85" rx="3.34" ry="3.34"/><rect class="cls-1" x="19.69" y="19.69" width="29.54" height="29.54" rx="3.34" ry="3.34"/><path class="cls-1" d="M68.92,82.11v42.54c0,1.85-1.5,3.34-3.34,3.34H3.34c-1.85,0-3.34-1.5-3.34-3.34v-42.54c0-1.85,1.5-3.34,3.34-3.34h22.85c1.85,0,3.34,1.5,3.34,3.34v3.16c0,1.85-1.5,3.34-3.34,3.34h-13c-1.85,0-3.34,1.5-3.34,3.34v22.84c0,1.85,1.5,3.34,3.34,3.34h42.54c1.85,0,3.34-1.5,3.34-3.34v-22.84c0-1.85-1.5-3.34-3.34-3.34h-13.01c-1.85,0-3.34-1.5-3.34-3.34v-3.16c0-1.85,1.5-3.34,3.34-3.34h22.85c1.85,0,3.34,1.5,3.34,3.34Z"/></svg>